<svg width="512" height="512" viewBox="0 0 512 512" fill="none" xmlns="http://www.w3.org/2000/svg">
<path d="M438.012 394.226H85.5259C89.2459 369.455 102.589 348.726 120.687 337.977C127.386 333.956 134.76 331.316 142.512 330.349C147.304 310.582 155.61 292.64 166.55 277.569C187.614 248.577 218.476 230.298 252.866 230.298C300.213 230.298 340.852 264.968 358.501 314.511C360.731 314.234 362.983 314.025 365.263 314.025C398.611 314.025 425.617 346.787 425.617 387.172C425.617 387.581 425.617 387.924 425.59 388.277C430.056 389.412 434.239 391.464 438.012 394.226Z" fill="#DCF4E6"/>
<path d="M320.877 394.226H449.828C446.424 388.084 439.192 389.988 431.406 389.825C429.951 385.233 425.918 385.329 417.231 386.743C428.237 376.707 424.803 366.847 405.61 373.274C427.532 343.429 393.548 336.608 388.53 336.011C382.206 335.257 353.137 339.905 368.544 370.984C349.88 363.237 344.773 372.394 358.86 388.505C345.403 389.136 329.278 392.092 320.877 394.226Z" fill="#93E5B6"/>
<path d="M62.1727 394.226H287.401C272.79 390.833 242.518 386.814 228.899 386.527C226.354 378.495 219.3 378.664 204.105 381.137C223.355 363.582 217.349 346.336 183.778 357.577C222.123 305.374 162.68 293.444 153.902 292.4C142.841 291.08 91.9952 299.211 118.945 353.572C86.2971 340.022 77.3655 356.038 102.005 384.219C78.4661 385.322 70.114 388.084 62.1727 394.226Z" fill="#93E5B6"/>
<path d="M253.97 394.964C246.951 394.964 241.639 389.254 242.127 382.236L260.431 119.266C260.92 112.248 267.027 106.537 274.046 106.537H401.431C408.449 106.537 413.762 112.248 413.274 119.266L394.97 382.236C394.481 389.254 388.373 394.964 381.354 394.964H253.97Z" fill="#549BEC"/>
<path d="M254.617 385.667C252.725 385.667 251.292 384.128 251.424 382.236L269.728 119.266C269.86 117.373 271.507 115.834 273.399 115.834H400.783C402.676 115.834 404.109 117.373 403.977 119.266L385.673 382.236C385.541 384.128 383.894 385.667 382.001 385.667H254.617Z" fill="#CDEEFF"/>
<path opacity="0.5" d="M360.009 171.064H285.04C282.777 171.064 280.902 172.819 280.751 175.077L278.183 213.646C278.018 216.127 279.985 218.23 282.472 218.23H357.44C359.703 218.23 361.578 216.475 361.729 214.217L364.298 175.648C364.463 173.167 362.495 171.064 360.009 171.064Z" fill="white"/>
<path opacity="0.5" d="M378.702 240.865H303.734C301.471 240.865 299.595 242.62 299.445 244.878L296.876 283.447C296.711 285.928 298.678 288.031 301.165 288.031H376.133C378.396 288.031 380.272 286.276 380.422 284.018L382.991 245.449C383.156 242.968 381.188 240.865 378.702 240.865Z" fill="white"/>
<path d="M313.019 390.834L317.717 320.105L333.968 268.468C333.968 268.468 344.246 253.48 335.333 236.691C335.333 236.691 301.59 236.535 298.443 239.52C295.295 242.506 292.749 320.448 292.749 320.448L298.556 390.834L313.019 390.834Z" fill="#009444"/>
<path d="M333.97 268.475L317.712 320.1L313.02 390.833H298.558L294.594 342.769C299.982 339.626 312.308 332.085 311.874 329.096C311.317 325.287 305.804 322.299 304.566 320.502C303.311 318.706 312.695 312.497 312.153 312.311C311.596 312.125 306.362 311.119 303.311 308.053C300.276 304.971 311.177 306.148 312.292 302.293C313.392 298.422 313.252 260.067 312.292 260.237C311.425 260.392 300.725 256.18 296.22 253.455C296.901 245.713 297.659 240.278 298.449 239.519C301.592 236.531 335.333 236.686 335.333 236.686C344.252 253.486 333.97 268.475 333.97 268.475Z" fill="#097C3A"/>
<path d="M334.986 390.834H349.369L341.947 321.32L351.354 267.197C351.354 267.197 356.272 254.262 348.99 236.37C348.99 236.37 320.026 233.775 317.151 237.024C314.276 240.274 317.717 320.104 317.717 320.104L334.986 390.834Z" fill="#009444"/>
<path d="M351.359 267.19L341.945 321.323L349.362 390.833H334.992L317.712 320.1C317.712 320.1 317.547 318.314 317.083 303.805C317.718 302.489 342.054 308.627 341.31 301.458C340.583 294.273 348.572 257.853 343.602 255.654C340.474 254.26 326.182 257.729 316.024 260.501C315.931 247.958 316.179 238.126 317.154 237.026C320.019 233.774 348.99 236.376 348.99 236.376C356.268 254.26 351.359 267.19 351.359 267.19Z" fill="#097C3A"/>
<path d="M299.137 176.145L289.935 188.347L241.577 184.722L240.503 195.462C240.503 195.462 285.389 204.354 289.614 203.427C293.839 202.5 310.793 191.244 310.793 191.244L299.137 176.145Z" fill="#C18C7C"/>
<path d="M300.768 162.426C300.768 162.426 296.411 180.036 293.221 180.036C292.061 180.036 297.843 193.145 304.035 193.397C310.067 193.642 314.163 180.669 314.163 180.669C314.163 180.669 318.297 167.586 316.541 163.67C313.88 157.733 300.768 162.426 300.768 162.426Z" fill="#FFC439"/>
<path d="M295.252 248.44C299.139 255.22 322.274 252.61 337.711 246.641C341.909 245.025 345.524 243.158 348.043 241.158C350.33 239.36 351.697 237.444 351.736 235.521C352.027 223.655 338.371 170.423 321.486 155.522C311.491 155.234 305.878 157.313 305.878 157.313C305.878 157.313 302.22 175.272 298.949 195.335C297.906 201.726 296.915 208.33 296.094 214.639C294.001 230.537 293.028 244.535 295.252 248.44Z" fill="#009444"/>
<path d="M308.913 156.904C308.913 156.904 306.078 232.972 311.046 251.786C311.046 251.786 301.878 232.192 308.913 156.904Z" fill="#097C3A"/>
<path d="M337.711 246.641C341.908 245.025 345.524 243.158 348.043 241.158C351.109 225.474 329.242 170.743 329.242 170.743C329.242 170.743 315.012 168.799 324.346 176.463C332.914 183.5 337.08 237.629 337.711 246.641Z" fill="#FFC439"/>
<path d="M321.173 232.972C321.173 232.972 325.718 242.348 330.587 243.481C330.587 243.481 322.138 247.602 321.173 232.972Z" fill="#FFC439"/>
<path d="M315.161 142.005L319.371 153.764L308.378 159.707L306.768 158.465L305.024 147.548L315.161 142.005Z" fill="#D7A28E"/>
<path d="M308.538 158.835C313.047 158.649 315.382 151.816 318.509 151.356C318.509 151.356 321.394 155.061 321.486 155.521C321.578 155.981 315.277 163.294 313.346 164.168C311.414 165.042 308.422 160.162 308.422 160.162C308.422 160.162 308.378 163.662 305.435 162.88C302.491 162.098 305.181 156.2 305.181 156.2L306.242 155.172C306.242 155.172 306.908 158.902 308.538 158.835Z" fill="#FFC439"/>
<path d="M315.738 145.319C315.738 145.319 322.428 132.165 312.545 125.371C302.662 118.577 295.582 126.413 295.781 130.26C296.06 135.664 293.572 141.809 293.572 141.809C293.572 141.809 292.139 148.982 295.294 151.544C298.449 154.106 307.19 150.657 307.19 150.657L315.738 145.319Z" fill="#D7A28E"/>
<path d="M300.581 136.616C300.503 136.393 299.522 139.871 298.934 140.342C298.345 140.812 300.698 141.675 301.012 141.636C301.326 141.597 299.67 140.302 299.67 140.302C299.67 140.302 300.894 137.518 300.581 136.616Z" fill="#11405C"/>
<path d="M297.429 133.949C297.453 134.734 297.059 135.384 296.549 135.4C296.039 135.415 295.606 134.792 295.582 134.006C295.558 133.221 295.951 132.572 296.461 132.556C296.971 132.54 297.404 133.164 297.429 133.949Z" fill="#11405C"/>
<path d="M295.777 130.268C295.777 130.268 295.612 130.879 295.735 131.055C295.858 131.231 296.541 131.03 297.25 131.474C297.958 131.918 298.585 132.257 298.585 132.257C298.585 132.257 299.211 131.588 298.765 131.022C298.319 130.456 295.863 129.72 295.777 130.268Z" fill="#11405C"/>
<path d="M296.395 133.615C296.381 133.88 296.155 134.084 295.89 134.07C295.624 134.056 295.421 133.829 295.435 133.564C295.449 133.298 295.675 133.095 295.941 133.109C296.206 133.123 296.409 133.349 296.395 133.615Z" fill="#DCF4E6"/>
<path d="M305.598 134.573C305.622 135.358 305.228 136.007 304.718 136.023C304.208 136.039 303.775 135.415 303.751 134.63C303.727 133.845 304.121 133.195 304.63 133.179C305.14 133.164 305.573 133.788 305.598 134.573Z" fill="#11405C"/>
<path d="M303.946 130.892C303.946 130.892 303.781 131.502 303.904 131.678C304.027 131.854 304.71 131.653 305.419 132.097C306.128 132.542 306.754 132.88 306.754 132.88C306.754 132.88 307.38 132.211 306.934 131.645C306.488 131.079 304.032 130.343 303.946 130.892Z" fill="#11405C"/>
<path d="M304.564 134.238C304.55 134.503 304.324 134.707 304.059 134.693C303.793 134.679 303.59 134.453 303.604 134.187C303.618 133.922 303.844 133.718 304.11 133.732C304.375 133.747 304.578 133.973 304.564 134.238Z" fill="#DCF4E6"/>
<path d="M295.805 146.067C295.672 146.222 295.752 146.597 296.173 146.971C296.575 147.353 297.384 147.663 298.239 147.568C299.968 147.341 300.756 146.15 300.47 145.838C300.2 145.484 299.157 145.857 298.075 145.971C297.039 146.122 296.137 145.733 295.805 146.067Z" fill="#11405C"/>
<path d="M295.017 151.331C294.946 151.514 295.533 151.995 296.655 152.376C297.768 152.773 299.418 153.036 301.214 152.9C304.839 152.638 307.4 151.047 307.19 150.657C307.009 150.252 304.384 151.069 301.098 151.298C297.815 151.594 295.195 150.893 295.017 151.331Z" fill="#C18C7C"/>
<path d="M317.708 130.173C317.154 130.075 316.601 129.96 316.047 129.86C316.824 130.653 317.048 135.109 315.308 135.986C313.875 136.708 316.001 145.689 316.001 145.689C316.001 145.689 315.626 143.81 319.795 143.508C323.049 143.273 322.187 139.105 322.187 139.105C326.5 137.721 324.457 132.46 324.457 132.46C324.457 132.46 322.106 130.943 317.708 130.173Z" fill="#11405C"/>
<path d="M324.921 133.75L316.71 132.62L294.386 129.559L279.021 127.434C279.021 127.434 278.01 126.572 281.737 126.677C285.475 126.8 294.201 126.492 294.201 126.492C294.201 126.492 300.974 109.388 313.972 112.406C315.271 112.704 316.406 113.164 317.417 113.739C320.772 115.628 322.673 118.809 323.729 122.087C325.593 127.782 324.921 133.75 324.921 133.75Z" fill="#FFC439"/>
<path d="M312.509 131.924C312.509 131.924 313.541 130.419 314.874 130.312C316.207 130.204 318.125 131.665 317.312 134.462C316.5 137.259 316.056 139.253 314.1 139.115C312.143 138.976 312.398 132.072 312.509 131.924Z" fill="#D7A28E"/>
<path d="M315.194 131.285C315.345 131.416 314.597 132.36 314.227 133.672C314.206 133.742 314.198 133.809 314.182 133.877C314.253 133.846 314.326 133.808 314.405 133.746C314.789 133.49 315.135 133.185 315.273 133.282C315.404 133.365 315.275 133.87 314.73 134.247C314.544 134.378 314.305 134.44 314.1 134.43C314.038 135.376 314.351 136.072 314.204 136.158C314.139 136.2 313.871 135.995 313.663 135.512C313.443 135.039 313.344 134.267 313.553 133.492C314.005 131.935 315.081 131.146 315.194 131.285Z" fill="#11405C"/>
<path d="M315.08 128.945C310.257 128.704 294.201 126.492 294.201 126.492C294.201 126.492 300.974 109.388 313.972 112.405C315.271 112.704 316.406 113.164 317.417 113.738C315.369 114.561 312.408 114.95 310.411 114.381C305.705 113.024 299.278 120.134 300.936 123.474C302.607 126.815 315.08 128.945 315.08 128.945Z" fill="#DBA12C"/>
<path d="M324.561 130.933C324.536 131.036 321.392 131.417 321.72 129.817C322.048 128.217 324.525 128.231 324.525 128.231C324.525 128.231 324.736 130.234 324.561 130.933Z" fill="#DBA12C"/>
<path d="M213.414 170.601L240.125 164.926L266.836 168.845L240.595 177.894L213.414 170.601Z" fill="#FFC439"/>
<path d="M241.321 205.092L267.318 198.744L266.836 168.845L240.503 174.448L241.321 205.092Z" fill="#DBA12C"/>
<path opacity="0.5" d="M225.366 168.062L233.723 166.335L257.395 170.699L257.683 176.707L254.393 177.723L253.783 176.744L253.464 178.132L250.952 179.001L250.868 172.567L225.366 168.062Z" fill="#CDEEFF"/>
<path opacity="0.5" d="M253.807 202.054L253.792 197.39L255.404 197.077L255.759 197.647L255.945 196.849L260.163 195.652L260.658 200.377L253.807 202.054Z" fill="#CDEEFF"/>
<path d="M213.414 170.601L214.272 201.313L241.321 205.092L240.503 174.448L213.414 170.601Z" fill="#FFC439"/>
<path d="M213.414 170.601L240.503 174.448C240.503 174.448 232.051 175.443 226.439 174.448C220.826 173.454 213.414 170.601 213.414 170.601Z" fill="#DBA12C"/>
<path d="M308.661 179.001L290.837 193.363L249.309 189.672L246.287 198.019C246.287 198.019 290.323 209.214 294.662 208.262C299 207.31 319.851 194.196 319.851 194.196L308.661 179.001Z" fill="#D7A28E"/>
<path d="M324.724 158.879C324.724 158.879 310.126 174.89 300.688 181.108C299.694 181.763 309.648 198.405 316.006 198.663C322.201 198.915 333.67 181.257 333.67 181.257C333.67 181.257 337.915 167.822 336.112 163.801C333.378 157.705 324.724 158.879 324.724 158.879Z" fill="#FFC439"/>
<path d="M242.494 180.786C241.037 181.166 241.426 182.648 241.426 182.648L242.614 187.182L230.869 185.553C230.869 185.553 230.154 186.632 230.852 187.213C231.171 187.479 236.846 188.867 236.846 188.867L229.002 187.784C229.002 187.784 228.399 189.048 229.163 189.355C229.529 189.502 236.519 191.653 236.519 191.653L229.242 190.507C229.242 190.507 229.33 192.029 229.613 192.144C231.069 192.736 236.426 194.335 236.426 194.335L231.147 193.291C231.147 193.291 230.722 194.551 231.825 194.798C233.145 195.093 239.348 197.229 241.474 197.295C244.258 197.381 252.267 198.853 252.267 198.853C252.267 198.853 254.067 191.468 254.273 190.729C253.185 190.509 249.309 189.672 249.309 189.672C246.753 187.442 245.834 184.151 242.494 180.786Z" fill="#D7A28E"/>
<path d="M237.949 188.977C237.929 189.1 237.143 189.076 236.193 188.924C235.242 188.771 234.488 188.548 234.508 188.425C234.528 188.302 235.314 188.326 236.264 188.478C237.214 188.631 237.969 188.854 237.949 188.977Z" fill="#C18C7C"/>
<path d="M237.757 191.829C237.732 191.951 236.995 191.901 236.11 191.718C235.225 191.534 234.529 191.287 234.554 191.165C234.579 191.043 235.317 191.093 236.201 191.276C237.086 191.459 237.783 191.707 237.757 191.829Z" fill="#C18C7C"/>
<path d="M237.802 194.509C237.78 194.632 237.163 194.625 236.423 194.494C235.684 194.363 235.102 194.157 235.123 194.035C235.145 193.912 235.762 193.919 236.502 194.05C237.241 194.181 237.823 194.386 237.802 194.509Z" fill="#C18C7C"/>
<path d="M237.874 193.406C237.989 193.476 237.847 193.85 237.832 194.284C237.806 194.721 237.92 195.084 237.819 195.153C237.722 195.238 237.354 194.861 237.382 194.264C237.414 193.668 237.786 193.336 237.874 193.406Z" fill="#C18C7C"/>
<path d="M237.855 190.885C237.97 190.956 237.827 191.329 237.813 191.764C237.787 192.201 237.9 192.563 237.799 192.633C237.702 192.718 237.334 192.34 237.362 191.744C237.394 191.148 237.767 190.816 237.855 190.885Z" fill="#C18C7C"/>
<path d="M238.013 188.191C238.128 188.262 237.986 188.636 237.971 189.07C237.945 189.507 238.059 189.87 237.958 189.939C237.861 190.024 237.493 189.647 237.521 189.05C237.552 188.454 237.925 188.122 238.013 188.191Z" fill="#C18C7C"/>
<path d="M130.81 168.363C130.81 168.363 115.56 185.694 115.56 191.544C115.56 197.393 125.896 201.484 125.896 201.484L132.797 199.281C132.797 199.281 145.727 168.261 144.675 165.842C143.624 163.423 130.81 168.363 130.81 168.363Z" fill="#FFC439"/>
<path d="M119.806 188.148C119.806 188.148 111.438 204.487 111.438 208.488C111.438 212.489 157.751 242.664 157.751 242.664L160.732 234.055L130.397 206.485L135.464 194.983L119.806 188.148Z" fill="#D7A28E"/>
<path d="M133.051 172.419C121.268 190.562 115.56 190.096 115.56 191.544C115.56 197.393 125.896 201.484 125.896 201.484L132.797 199.281C132.797 199.281 134.459 170.251 133.051 172.419Z" fill="#DBA12C"/>
<path d="M145.695 154.102L141.661 165.369L153.039 169.819L155.409 159.413L145.695 154.102Z" fill="#D7A28E"/>
<path d="M139.381 167.097C139.529 165.222 140.215 161.614 141.917 161.128C143.619 160.641 154.703 162.12 155.409 163.797C156.115 165.473 154.775 168.643 154.775 168.643L139.381 167.097Z" fill="#DBA12C"/>
<path d="M145.512 156.173C145.512 156.173 143.071 145.99 150.668 140.767C158.265 135.545 163.708 141.568 163.555 144.526C163.34 148.679 166.437 152.141 166.437 152.141L165.253 153.403C165.253 153.403 166.354 158.917 163.929 160.886C161.503 162.856 154.784 160.205 154.784 160.205L145.512 156.173Z" fill="#D7A28E"/>
<path d="M162.894 147.361C162.876 147.965 163.178 148.464 163.571 148.476C163.963 148.488 164.295 148.009 164.314 147.405C164.333 146.802 164.03 146.303 163.638 146.29C163.246 146.278 162.913 146.758 162.894 147.361Z" fill="#11405C"/>
<path d="M164.164 144.532C164.164 144.532 164.291 145.001 164.196 145.136C164.102 145.272 163.577 145.117 163.032 145.458C162.487 145.8 162.005 146.06 162.005 146.06C162.005 146.06 161.524 145.546 161.867 145.111C162.21 144.676 164.097 144.11 164.164 144.532Z" fill="#11405C"/>
<path d="M163.689 147.104C163.699 147.308 163.873 147.465 164.077 147.454C164.281 147.443 164.438 147.269 164.427 147.065C164.416 146.861 164.242 146.704 164.038 146.715C163.834 146.726 163.678 146.9 163.689 147.104Z" fill="#DCF4E6"/>
<path d="M162.207 151.46C162.647 152.402 162.444 153.427 161.754 153.749C161.063 154.072 160.147 153.569 159.707 152.628C159.267 151.686 159.47 150.661 160.16 150.338C160.85 150.016 161.767 150.518 162.207 151.46Z" fill="#C18C7C"/>
<path d="M151.955 145.313C151.839 145.414 152.414 146.139 152.698 147.148C152.714 147.202 152.721 147.253 152.733 147.306C152.678 147.282 152.622 147.253 152.561 147.205C152.266 147.008 152 146.774 151.895 146.849C151.794 146.912 151.893 147.3 152.312 147.59C152.455 147.69 152.638 147.738 152.796 147.731C152.844 148.458 152.604 148.993 152.716 149.059C152.766 149.091 152.972 148.934 153.132 148.562C153.301 148.199 153.377 147.606 153.217 147.01C152.869 145.813 152.042 145.206 151.955 145.313Z" fill="#11405C"/>
<path d="M165.492 156.114C165.594 156.234 165.533 156.522 165.209 156.809C164.901 157.103 164.279 157.341 163.622 157.268C162.292 157.094 161.687 156.178 161.906 155.938C162.114 155.666 162.916 155.953 163.747 156.04C164.544 156.157 165.237 155.857 165.492 156.114Z" fill="#11405C"/>
<path d="M164.142 160.723C164.197 160.863 163.746 161.233 162.882 161.526C162.027 161.831 160.759 162.034 159.378 161.929C156.592 161.728 154.623 160.504 154.784 160.205C154.923 159.894 156.941 160.521 159.468 160.698C161.991 160.925 164.006 160.386 164.142 160.723Z" fill="#C18C7C"/>
<path d="M154.187 146.233C158.716 146.562 157.712 142.623 161.719 142.938C165.727 143.253 167.737 134.336 162.496 131.38C157.254 128.425 154.05 129.037 153.326 131.032C153.213 129.621 150.273 124.223 145.555 127.071C139.415 130.777 141.521 136.677 141.521 136.677C141.521 136.677 133.913 127.492 126.928 131.27C119.943 135.048 128.814 142.742 128.814 142.742C128.814 142.742 118.393 148.255 124.042 149.605C129.692 150.954 139.004 146.925 139.004 146.925C139.004 146.925 136.094 152.402 142.237 153.843C142.237 153.843 141.01 158.182 145.645 158.427C151.582 158.742 152.506 155.029 152.506 155.029C152.506 155.029 154.076 151.348 152.034 150.596C149.441 149.64 149.908 144.594 151.14 144.118C153.537 143.19 154.187 146.233 154.187 146.233Z" fill="#11405C"/>
<path d="M139.004 146.925C138.839 146.613 139.32 146.01 140.072 145.239C140.799 144.446 141.744 143.392 142.101 142.152C142.288 141.532 142.278 140.903 142.229 140.295C142.162 139.685 141.986 139.112 141.847 138.607C141.525 137.607 141.274 136.914 141.521 136.677C141.759 136.44 142.532 136.761 143.368 137.748C143.761 138.255 144.192 138.922 144.449 139.8C144.689 140.67 144.795 141.752 144.477 142.823C144.156 143.876 143.575 144.759 142.937 145.358C142.314 145.995 141.648 146.367 141.09 146.658C139.938 147.161 139.153 147.215 139.004 146.925Z" fill="#FFC439"/>
<path d="M163.952 143.606C162.744 143.799 162.076 145.464 162.399 147.481C162.723 149.506 163.877 150.879 165.085 150.685C166.286 150.493 166.954 148.829 166.63 146.804C166.307 144.786 165.153 143.414 163.952 143.606ZM164.977 150.011C164.174 150.139 163.327 148.959 163.074 147.373C162.821 145.794 163.257 144.409 164.06 144.281C164.856 144.153 165.703 145.333 165.955 146.912C166.209 148.498 165.773 149.883 164.977 150.011Z" fill="#FFC439"/>
<path d="M171.004 387.045H162.004V395.963V401.481L171.177 404.533L171.004 387.045Z" fill="#D7A28E"/>
<path d="M162.24 398.343C161.816 398.126 158.309 401.139 160.214 406.576C163.007 414.547 161.043 413.083 161.043 413.083H164.675L164.343 408.557C164.343 408.557 166.225 409.47 168.755 412.845C171.552 413.506 176.499 413.343 179.818 413.115C182.625 412.93 185.129 411.03 185.748 408.282C186.112 406.664 180.011 407.763 178.1 406.481C173.336 403.298 171.177 399.506 171.177 399.506C171.177 399.506 164.19 399.353 162.24 398.343Z" fill="#DBA12C"/>
<path d="M169.819 400.327C171.732 402.411 175.212 406.579 176.928 407.52C178.644 408.461 182.302 408.236 182.08 409.177C181.859 410.118 177.153 410.173 174.193 408.52C171.745 407.153 169.093 399.535 169.819 400.327Z" fill="#FFC439"/>
<path d="M125.886 230.713C125.886 230.713 158.113 228.091 161.339 230.713C164.565 233.335 172.708 307.615 172.708 307.615L172.204 394.774H160.911L150.007 307.282L129.518 260.973C129.518 260.973 118.601 247.406 125.886 230.713Z" fill="#2F627C"/>
<path d="M134.019 388.229L125.054 387.443L124.275 396.328L123.793 401.824L132.665 405.666L134.019 388.229Z" fill="#D7A28E"/>
<path d="M124.302 398.719C123.899 398.465 120.142 401.161 121.565 406.743C123.652 414.928 121.823 413.298 121.823 413.298L125.441 413.615L125.506 409.077C125.506 409.077 127.301 410.152 129.527 413.734C132.255 414.637 137.197 414.907 140.523 414.97C143.336 415.031 145.996 413.356 146.853 410.673C147.356 409.092 141.183 409.654 139.391 408.211C134.924 404.624 133.104 400.658 133.104 400.658C133.104 400.658 126.156 399.895 124.302 398.719Z" fill="#DBA12C"/>
<path d="M132.107 402.099C134.019 404.183 137.499 408.351 139.215 409.293C140.931 410.234 144.589 410.008 144.367 410.949C144.146 411.89 139.441 411.946 136.48 410.292C134.032 408.926 131.38 401.307 132.107 402.099Z" fill="#FFC439"/>
<path d="M112.814 231.406C112.814 231.406 135.058 228.756 138.043 231.65C141.028 234.544 148.828 309.116 148.828 309.116L134.54 396.034L123.29 395.047L125.767 312.053L112.814 261.032C112.814 261.032 107.167 249.034 112.814 231.406Z" fill="#2F627C"/>
<path d="M148.948 308.386L147.426 296.187L127.096 264.073L140.714 312.286C140.714 312.286 139.385 315.133 135.566 316.424C131.746 317.715 136.064 319.557 139.053 320.961C142.042 322.365 134.569 321.534 134.735 323.527C134.901 325.52 143.388 327.181 142.964 327.679C142.541 328.177 138.542 371.686 138.542 371.686L148.948 308.386Z" fill="#11405C"/>
<path d="M106.792 237.66C107.02 242.605 166.584 244.722 168.14 240.76C169.696 236.798 167.473 233.698 165.917 231.631C164.361 229.564 159.471 205.793 162.361 203.898C165.25 202.003 168.479 194.079 166.712 192.357C164.945 190.634 165.473 184.089 165.473 184.089C165.473 184.089 159.215 165.485 155.009 164.452C150.803 163.418 142.356 163.074 136.355 167.552C130.353 172.031 106.125 223.19 106.792 237.66Z" fill="#FFC439"/>
<path d="M156.737 194.941C156.737 194.941 152.338 201.142 152.62 205.922C152.902 210.702 158.782 239.124 158.176 238.349C157.57 237.574 150.568 207.085 150.568 205.793C150.569 199.592 156.737 194.941 156.737 194.941Z" fill="#DBA12C"/>
<path d="M170.674 183.049L186.341 197.028L225.509 212.825L222.035 220.824L179.244 210.906L159.241 196.222L170.674 183.049Z" fill="#D7A28E"/>
<path d="M235.066 208.75C236.084 209.773 235.041 210.807 235.041 210.807L231.854 213.97L242.34 218.345C242.34 218.345 242.405 219.583 241.546 219.723C241.153 219.787 235.794 218.17 235.794 218.17L242.795 221.096C242.795 221.096 242.677 222.432 241.897 222.314C241.523 222.257 234.707 220.628 234.707 220.628L241.271 223.226C241.271 223.226 240.457 224.439 240.168 224.396C238.678 224.175 233.478 222.888 233.478 222.888L238.343 224.596C238.343 224.596 238.08 225.842 237.051 225.509C235.818 225.11 229.658 223.853 227.871 222.873C225.532 221.588 217.689 219.664 217.689 219.664C217.689 219.664 220.315 211.932 220.505 211.221C221.51 211.57 225.116 212.766 225.116 212.766C228.311 212.17 230.671 209.902 235.066 208.75Z" fill="#D7A28E"/>
<path d="M234.829 217.723C234.786 217.835 235.446 218.198 236.305 218.535C237.163 218.871 237.894 219.055 237.938 218.944C237.981 218.832 237.321 218.469 236.463 218.133C235.604 217.795 234.873 217.612 234.829 217.723Z" fill="#C18C7C"/>
<path d="M233.599 220.17C233.56 220.283 234.193 220.601 235.013 220.881C235.832 221.16 236.528 221.295 236.566 221.182C236.605 221.069 235.972 220.751 235.152 220.472C234.333 220.192 233.637 220.057 233.599 220.17Z" fill="#C18C7C"/>
<path d="M232.257 222.361C232.216 222.472 232.729 222.767 233.403 223.019C234.077 223.271 234.657 223.385 234.699 223.273C234.741 223.161 234.228 222.866 233.554 222.614C232.88 222.363 232.299 222.249 232.257 222.361Z" fill="#C18C7C"/>
<path d="M232.735 221.415C232.606 221.417 232.541 221.794 232.341 222.16C232.15 222.534 231.88 222.777 231.929 222.884C231.968 223.001 232.456 222.869 232.723 222.363C232.987 221.856 232.841 221.4 232.735 221.415Z" fill="#C18C7C"/>
<path d="M233.978 219.344C233.849 219.346 233.784 219.724 233.585 220.09C233.394 220.463 233.124 220.707 233.173 220.814C233.212 220.93 233.7 220.798 233.967 220.292C234.23 219.785 234.084 219.33 233.978 219.344Z" fill="#C18C7C"/>
<path d="M235.159 217.044C235.03 217.046 234.965 217.423 234.766 217.789C234.574 218.162 234.304 218.406 234.354 218.513C234.393 218.63 234.88 218.498 235.148 217.992C235.411 217.485 235.265 217.029 235.159 217.044Z" fill="#C18C7C"/>
<path d="M157.221 166.952C157.221 166.952 180.131 183.873 180.131 188.039C180.131 192.204 170.157 204.93 167.573 205.152C164.847 203.449 151.859 192.427 151.859 192.427C151.859 192.427 144.544 180.551 145.139 176.201C146.568 165.754 157.221 166.952 157.221 166.952Z" fill="#FFC439"/>
<path d="M146.568 169.819C146.568 169.819 156.035 165.632 157.535 166.924C159.036 168.216 158.369 168.591 158.369 168.591C158.369 168.591 147.568 170.744 146.568 169.819Z" fill="#DBA12C"/>
<path d="M147.498 182.063C147.498 182.063 154.748 193.232 155.409 194.316C156.07 195.4 167.572 205.152 167.572 205.152C167.572 205.152 155.73 197.817 154.775 196.733C153.819 195.65 147.498 182.063 147.498 182.063Z" fill="#DBA12C"/>
<path d="M363.687 404.745L304.924 394.269L316.133 309.547L367.513 314.02L363.687 404.745Z" fill="#91C4F6"/>
<path d="M367.513 314.02L369.846 316.018L371.556 314.373L376.182 399.274L371.635 400.313L363.687 404.745L367.513 314.02Z" fill="#549BEC"/>
<path d="M329.287 322.949C329.287 324.176 328.577 325.171 327.701 325.171C326.824 325.171 326.114 324.176 326.114 322.949C326.114 321.722 326.824 320.727 327.701 320.727C328.577 320.727 329.287 321.722 329.287 322.949Z" fill="#549BEC"/>
<path d="M349.197 323.911C349.197 325.101 348.508 326.065 347.658 326.065C346.808 326.065 346.119 325.101 346.119 323.911C346.119 322.721 346.808 321.757 347.658 321.757C348.508 321.756 349.197 322.721 349.197 323.911Z" fill="#549BEC"/>
<path d="M326.822 322.895C326.233 326.358 325.643 329.821 325.054 333.284C324.547 336.258 323.892 339.26 323.783 342.284C323.587 347.721 326.222 352.312 331.253 354.539C333.806 355.669 336.628 356.069 339.403 356.037C341.482 356.014 343.928 355.834 345.245 353.988C346.739 351.895 345.248 349.79 343.779 348.17C342.059 346.275 338.028 344.693 338.185 341.758C338.291 339.749 339.85 338.235 341.139 336.863C342.199 335.735 343.204 334.562 344.126 333.318C345.786 331.076 348.465 327.7 348.134 324.727C348.048 323.958 346.833 323.95 346.92 324.727C347.201 327.25 344.826 330.277 343.41 332.248C341.922 334.319 340.012 336.005 338.486 338.03C337.337 339.554 336.54 341.553 337.217 343.45C337.893 345.348 339.824 346.294 341.291 347.486C342.322 348.325 343.321 349.321 344.043 350.442C345.25 352.316 344.267 353.946 342.279 354.534C339.791 355.27 336.529 354.869 334.072 354.232C328.455 352.778 324.859 348.429 324.987 342.567C325.056 339.454 325.758 336.352 326.279 333.292C326.85 329.934 327.422 326.576 327.993 323.218C328.123 322.453 326.953 322.125 326.822 322.895Z" fill="#CDEEFF"/>
<path d="M261.742 358.408L309.316 348.301L356.89 355.281L310.154 371.398L261.742 358.408Z" fill="#FFC439"/>
<path d="M311.447 419.839L357.749 408.533L356.89 355.281L309.99 365.261L311.447 419.839Z" fill="#DBA12C"/>
<path opacity="0.5" d="M283.03 353.886L297.915 350.812L340.076 358.583L340.588 369.283L334.729 371.094L333.642 369.349L333.074 371.822L328.6 373.369L328.451 361.91L283.03 353.886Z" fill="#CDEEFF"/>
<path opacity="0.5" d="M333.684 414.428L333.657 406.121L336.53 405.563L337.162 406.578L337.493 405.158L345.006 403.026L345.887 411.441L333.684 414.428Z" fill="#CDEEFF"/>
<path d="M261.742 358.408L263.271 413.109L311.447 419.839L309.99 365.261L261.742 358.408Z" fill="#FFC439"/>
<path d="M261.742 358.408L309.99 365.261C309.99 365.261 294.937 367.032 284.94 365.261C274.943 363.49 261.742 358.408 261.742 358.408Z" fill="#DBA12C"/>
<path d="M328.451 371.233L366.093 363.236L403.735 368.759L366.756 381.511L328.451 371.233Z" fill="#FFC439"/>
<path d="M367.779 419.839L404.414 410.893L403.735 368.759L366.626 376.655L367.779 419.839Z" fill="#DBA12C"/>
<path opacity="0.5" d="M345.294 367.655L357.072 365.223L390.431 371.372L390.836 379.838L386.2 381.27L385.34 379.89L384.89 381.847L381.351 383.071L381.233 374.004L345.294 367.655Z" fill="#CDEEFF"/>
<path opacity="0.5" d="M385.373 415.558L385.352 408.985L387.625 408.544L388.125 409.347L388.387 408.223L394.332 406.536L395.029 413.195L385.373 415.558Z" fill="#CDEEFF"/>
<path d="M328.451 371.233L329.661 414.514L367.779 419.839L366.626 376.655L328.451 371.233Z" fill="#FFC439"/>
<path d="M328.451 371.233L366.626 376.655C366.626 376.655 354.716 378.057 346.806 376.655C338.896 375.254 328.451 371.233 328.451 371.233Z" fill="#DBA12C"/>
<path d="M307.401 236.88L292.949 243.282L293.706 250.267L305.918 277.849L307.878 276.989L322.324 270.588L324.279 269.721L312.06 242.145L307.401 236.88ZM302.2 244.668C301.352 245.044 300.363 244.653 299.984 243.81C299.609 242.956 299.986 241.958 300.842 241.58C301.686 241.207 302.691 241.586 303.072 242.439C303.441 243.293 303.056 244.289 302.2 244.668Z" fill="#FFC439"/>
<path d="M304.577 252.669L304.075 251.537L306.037 250.672L306.547 251.798C308.405 251.402 309.86 252.322 310.772 254.398L310.988 254.873L308.712 255.884L308.428 255.253C307.946 254.156 307.323 253.933 306.565 254.275C305.8 254.61 305.548 255.219 306.027 256.314C307.42 259.455 312.191 257.526 314.124 261.908C315.036 263.976 314.731 265.711 313.183 266.81L313.68 267.927L311.712 268.8L311.214 267.681C309.333 268.095 307.875 267.149 306.957 265.073L306.5 264.022L308.763 263.025L309.292 264.222C309.781 265.313 310.436 265.499 311.194 265.157C311.963 264.819 312.272 264.213 311.787 263.119C310.394 259.97 305.625 261.901 303.697 257.533C302.783 255.478 303.057 253.788 304.577 252.669Z" fill="#DBA12C"/>
<path d="M197.592 114.194L192.18 142.06C192.18 142.06 209.709 150.928 210.348 150.286C210.986 149.645 222.051 123.294 222.051 123.294L197.592 114.194Z" fill="#F2CD33"/>
<path d="M206.563 126.489C207.782 127.019 208.254 128.108 207.385 129.408C206.527 130.713 205.165 131.006 203.946 130.476C202.715 129.941 202.243 128.851 203.1 127.546C203.969 126.246 205.345 125.959 206.563 126.489ZM210.6 128.395L212.717 129.315L202.249 135.504L200.133 134.584L210.6 128.395ZM204.626 128.209C204.267 128.755 204.329 129.102 204.714 129.27C205.099 129.437 205.511 129.296 205.871 128.75C206.23 128.205 206.154 127.852 205.77 127.684C205.384 127.517 204.985 127.664 204.626 128.209ZM208.929 133.434C210.148 133.964 210.607 135.048 209.737 136.348C208.88 137.653 207.517 137.946 206.299 137.416C205.08 136.886 204.608 135.797 205.478 134.497C206.335 133.192 207.71 132.905 208.929 133.434ZM206.979 135.149C206.62 135.695 206.682 136.042 207.08 136.215C207.452 136.377 207.864 136.236 208.223 135.69C208.582 135.144 208.507 134.792 208.135 134.63C207.75 134.463 207.338 134.604 206.979 135.149Z" fill="#DBA12C"/>
<path d="M350.925 99.2211L363.93 130.699C363.93 130.699 387.343 127.988 387.558 126.924C387.773 125.859 381.43 92.1611 381.43 92.1611L350.925 99.2211Z" fill="#F2CD33"/>
<path d="M368.036 105.599C369.606 105.324 370.799 106.103 370.788 107.979C370.793 109.852 369.622 111.046 368.051 111.322C366.465 111.6 365.271 110.821 365.266 108.948C365.278 107.071 366.466 105.875 368.036 105.599ZM373.338 104.839L376.066 104.361L369.677 117.477L366.95 117.956L373.338 104.839ZM367.234 108.603C367.235 109.386 367.527 109.693 368.023 109.606C368.519 109.518 368.839 109.105 368.837 108.321C368.836 107.537 368.527 107.234 368.031 107.321C367.535 107.408 367.233 107.819 367.234 108.603ZM374.996 110.989C376.567 110.714 377.743 111.495 377.732 113.372C377.737 115.245 376.566 116.439 374.996 116.714C373.425 116.99 372.232 116.211 372.244 114.335C372.239 112.461 373.426 111.265 374.996 110.989ZM374.178 113.995C374.179 114.779 374.471 115.085 374.984 114.995C375.463 114.911 375.782 114.498 375.781 113.714C375.78 112.93 375.471 112.627 374.992 112.711C374.496 112.798 374.177 113.212 374.178 113.995Z" fill="#DBA12C"/>
</svg>
