<svg width="958" height="793" viewBox="0 0 958 793" fill="none" xmlns="http://www.w3.org/2000/svg">
<path d="M955.924 146.8C955.624 145.8 955.224 144.9 954.824 143.9C954.724 143.7 954.624 143.4 954.524 143.2C954.224 142.5 953.924 141.9 953.524 141.3C953.324 140.9 953.024 140.5 952.824 140.1C952.524 139.7 952.324 139.3 952.024 138.9C951.724 138.5 951.424 138.1 951.124 137.8C950.524 137 949.824 136.3 949.224 135.6C949.224 135.6 949.224 135.5 949.124 135.5C943.824 129.7 936.324 126 927.624 126H257.924C252.424 109.4 247.024 92.8 241.524 76.2C235.624 58.4 230.124 40.5 223.924 22.8C223.824 22.5 223.724 22.3 223.624 22C219.424 9.4 208.324 0 194.724 0H30.0236C14.3236 0 -0.676423 13.8 0.0235765 30C0.723577 46.3 13.2236 60 30.0236 60H173.024C175.424 67 177.824 74.6 180.224 81.8C189.224 109.3 198.324 136.8 207.324 164.2L242.424 270.7C247.124 285.1 251.924 299.5 256.624 313.9C270.424 355.7 284.124 397.5 297.924 439.3C300.924 448.5 304.024 457.7 307.024 466.9C307.024 467 306.924 467 306.924 467.1C292.924 491.9 279.024 516.8 265.024 541.6C262.724 545.8 260.324 549.8 258.024 553.9C246.924 573.6 260.924 598.9 283.924 598.9H741.824C762.924 598.9 784.124 599.5 805.324 599.1C805.624 599.1 805.924 599.2 806.224 599.2C821.924 599.2 836.924 585.3 836.224 569.1C835.524 552.8 823.024 539 806.224 539H335.424C342.724 526.1 349.924 513.2 357.224 500.3C357.224 500.2 357.324 500.1 357.324 500.1H357.224H748.824C767.724 500.1 786.624 501.1 805.524 500.1C805.824 500.1 806.024 500.2 806.324 500.2C820.624 500.2 830.424 490.7 835.224 478.2C848.924 442.9 862.524 407.5 876.224 372.2C898.024 315.9 919.824 259.5 941.624 203.2C934.324 222 927.124 240.8 919.824 259.6C905.324 297.2 890.824 334.7 876.224 372.3L842.024 460.8C853.424 431.3 865.024 401.8 876.424 372.2C898.224 315.9 919.924 259.5 941.924 203.2C945.924 192.1 954.724 169.8 954.724 169.8C954.724 169.8 956.024 166.1 956.724 164.3C956.924 163.8 957.024 163.3 957.224 162.8C958.324 158.1 957.624 152 955.924 146.8ZM715.924 256.1L698.224 273.8L621.024 351C604.824 367.1 588.724 383.3 572.524 399.5C564.924 407.2 551.924 407.1 544.224 399.5L535.724 391L476.524 331.8C468.624 323.9 469.224 311.5 476.524 303.5C483.824 295.5 497.424 296.1 504.824 303.5L513.324 312C528.324 327 543.424 341.9 558.424 357L561.924 353.5L639.124 276.3L687.624 227.8C695.524 219.9 707.924 220.5 715.924 227.8C723.924 235.2 723.324 248.7 715.924 256.1ZM773.024 764.5C752.624 789.2 716.624 798.8 686.724 787.5C656.324 776 635.924 747.4 635.324 714.9C635.324 714.9 635.124 714.9 635.124 714.8C635.124 714.6 634.924 714.3 634.924 714.1V714C634.924 713.8 635.124 713.5 635.124 713.3C635.824 677.3 661.724 644.6 697.624 637.6C729.924 631.3 763.124 645.6 780.324 673.7C797.524 702.2 794.024 739 773.024 764.5ZM428.224 764.5C407.824 789.2 371.824 798.8 341.924 787.5C311.524 776 291.324 747.4 290.724 714.9C290.724 714.6 290.824 714.4 290.824 714.1V714C290.824 713.8 290.624 713.5 290.724 713.3C291.424 677.3 317.124 644.6 353.024 637.6C385.324 631.3 418.424 645.6 435.624 673.7C452.924 702.2 449.324 739 428.224 764.5Z" fill="black"/>
</svg>
