<svg width="181" height="23" viewBox="0 0 181 23" fill="none" xmlns="http://www.w3.org/2000/svg">
<path d="M7.45215 22H2.80859L2.83789 18.5723H7.45215C8.60449 18.5723 9.57617 18.3135 10.3672 17.7959C11.1582 17.2686 11.7539 16.502 12.1543 15.4961C12.5645 14.4902 12.7695 13.2744 12.7695 11.8486V10.8086C12.7695 9.71484 12.6523 8.75293 12.418 7.92285C12.1934 7.09277 11.8564 6.39453 11.4072 5.82812C10.958 5.26172 10.4062 4.83691 9.75195 4.55371C9.09766 4.26074 8.3457 4.11426 7.49609 4.11426H2.7207V0.671875H7.49609C8.92188 0.671875 10.2256 0.916016 11.4072 1.4043C12.5986 1.88281 13.6289 2.57129 14.498 3.46973C15.3672 4.36816 16.0361 5.44238 16.5049 6.69238C16.9834 7.93262 17.2227 9.31445 17.2227 10.8379V11.8486C17.2227 13.3623 16.9834 14.7441 16.5049 15.9941C16.0361 17.2441 15.3672 18.3184 14.498 19.2168C13.6387 20.1055 12.6084 20.7939 11.4072 21.2822C10.2158 21.7607 8.89746 22 7.45215 22ZM5.29883 0.671875V22H0.904297V0.671875H5.29883ZM24.4889 0.671875V22H20.109V0.671875H24.4889ZM39.1086 16.4189C39.1086 16.0381 39.05 15.6963 38.9328 15.3936C38.8254 15.0811 38.6203 14.7979 38.3176 14.5439C38.0148 14.2803 37.59 14.0215 37.0432 13.7676C36.4963 13.5137 35.7883 13.25 34.9191 12.9766C33.9523 12.6641 33.0344 12.3125 32.1652 11.9219C31.3059 11.5312 30.5441 11.0771 29.8801 10.5596C29.2258 10.0322 28.7082 9.42188 28.3273 8.72852C27.9562 8.03516 27.7707 7.22949 27.7707 6.31152C27.7707 5.42285 27.966 4.61719 28.3566 3.89453C28.7473 3.16211 29.2941 2.53711 29.9973 2.01953C30.7004 1.49219 31.5305 1.08691 32.4875 0.803711C33.4543 0.520508 34.5139 0.378906 35.6662 0.378906C37.2385 0.378906 38.6105 0.662109 39.7824 1.22852C40.9543 1.79492 41.8625 2.57129 42.507 3.55762C43.1613 4.54395 43.4885 5.67187 43.4885 6.94141H39.1232C39.1232 6.31641 38.9914 5.76953 38.7277 5.30078C38.4738 4.82227 38.0832 4.44629 37.5559 4.17285C37.0383 3.89941 36.384 3.7627 35.593 3.7627C34.8312 3.7627 34.1965 3.87988 33.6887 4.11426C33.1809 4.33887 32.8 4.64648 32.5461 5.03711C32.2922 5.41797 32.1652 5.84766 32.1652 6.32617C32.1652 6.6875 32.2531 7.01465 32.4289 7.30762C32.6145 7.60059 32.8879 7.87402 33.2492 8.12793C33.6105 8.38184 34.0549 8.62109 34.5822 8.8457C35.1096 9.07031 35.7199 9.29004 36.4133 9.50488C37.5754 9.85645 38.5959 10.252 39.4748 10.6914C40.3635 11.1309 41.1057 11.624 41.7014 12.1709C42.2971 12.7178 42.7463 13.3379 43.049 14.0312C43.3518 14.7246 43.5031 15.5107 43.5031 16.3896C43.5031 17.3174 43.3225 18.1475 42.9611 18.8799C42.5998 19.6123 42.0773 20.2324 41.3937 20.7402C40.7102 21.248 39.8947 21.6338 38.9475 21.8975C38.0002 22.1611 36.9406 22.293 35.7687 22.293C34.7141 22.293 33.674 22.1562 32.6486 21.8828C31.6232 21.5996 30.6906 21.1748 29.8508 20.6084C29.0207 20.042 28.3566 19.3193 27.8586 18.4404C27.3605 17.5615 27.1115 16.5215 27.1115 15.3203H31.5207C31.5207 15.9844 31.6232 16.5459 31.8283 17.0049C32.0334 17.4639 32.3215 17.835 32.6926 18.1182C33.0734 18.4014 33.5227 18.6064 34.0402 18.7334C34.5676 18.8604 35.1437 18.9238 35.7687 18.9238C36.5305 18.9238 37.1555 18.8164 37.6437 18.6016C38.1418 18.3867 38.508 18.0889 38.7424 17.708C38.9865 17.3271 39.1086 16.8975 39.1086 16.4189ZM53.948 11.1895V14.5H45.6717V11.1895H53.948Z" fill="#F74215"/>
<path d="M65.433 14.3975H59.9984V10.9697H65.433C66.2729 10.9697 66.9564 10.833 67.4838 10.5596C68.0111 10.2764 68.3969 9.88574 68.641 9.3877C68.8852 8.88965 69.0072 8.32812 69.0072 7.70312C69.0072 7.06836 68.8852 6.47754 68.641 5.93066C68.3969 5.38379 68.0111 4.94434 67.4838 4.6123C66.9564 4.28027 66.2729 4.11426 65.433 4.11426H61.5219V22H57.1273V0.671875H65.433C67.1029 0.671875 68.5336 0.974609 69.725 1.58008C70.9262 2.17578 71.8441 3.00098 72.4789 4.05566C73.1137 5.11035 73.4311 6.31641 73.4311 7.67383C73.4311 9.05078 73.1137 10.2422 72.4789 11.248C71.8441 12.2539 70.9262 13.0303 69.725 13.5771C68.5336 14.124 67.1029 14.3975 65.433 14.3975ZM82.1035 4.31934L76.3027 22H71.6299L79.5547 0.671875H82.5283L82.1035 4.31934ZM86.9229 22L81.1074 4.31934L80.6387 0.671875H83.6416L91.6104 22H86.9229ZM86.6592 14.0605V17.5029H75.3945V14.0605H86.6592ZM100.708 0.671875V22H96.3277V0.671875H100.708ZM107.27 0.671875V4.11426H89.8678V0.671875H107.27ZM121.128 14.9248H125.508C125.42 16.3604 125.025 17.6348 124.321 18.748C123.628 19.8613 122.656 20.7305 121.406 21.3555C120.166 21.9805 118.672 22.293 116.924 22.293C115.557 22.293 114.331 22.0586 113.247 21.5898C112.163 21.1113 111.236 20.4277 110.464 19.5391C109.702 18.6504 109.121 17.5762 108.721 16.3164C108.321 15.0566 108.12 13.6455 108.12 12.083V10.6035C108.12 9.04102 108.325 7.62988 108.736 6.37012C109.155 5.10059 109.751 4.02148 110.523 3.13281C111.304 2.24414 112.237 1.56055 113.321 1.08203C114.404 0.603516 115.615 0.364258 116.953 0.364258C118.731 0.364258 120.23 0.686523 121.45 1.33105C122.681 1.97559 123.633 2.86426 124.307 3.99707C124.99 5.12988 125.401 6.41895 125.537 7.86426H121.143C121.094 7.00488 120.923 6.27734 120.63 5.68164C120.337 5.07617 119.893 4.62207 119.297 4.31934C118.711 4.00684 117.93 3.85059 116.953 3.85059C116.221 3.85059 115.581 3.9873 115.034 4.26074C114.488 4.53418 114.029 4.94922 113.657 5.50586C113.286 6.0625 113.008 6.76562 112.822 7.61523C112.647 8.45508 112.559 9.44141 112.559 10.5742V12.083C112.559 13.1865 112.642 14.1582 112.808 14.998C112.974 15.8281 113.228 16.5312 113.57 17.1074C113.921 17.6738 114.37 18.1035 114.917 18.3965C115.474 18.6797 116.143 18.8213 116.924 18.8213C117.842 18.8213 118.599 18.6748 119.195 18.3818C119.79 18.0889 120.244 17.6543 120.557 17.0781C120.879 16.502 121.07 15.7842 121.128 14.9248ZM142.017 9.3584V12.7861H130.885V9.3584H142.017ZM132.188 0.671875V22H127.794V0.671875H132.188ZM145.152 0.671875V22H140.772V0.671875H145.152ZM162.687 18.5723V22H151.334V18.5723H162.687ZM152.77 0.671875V22H148.375V0.671875H152.77ZM161.207 9.3584V12.6982H151.334V9.3584H161.207ZM162.672 0.671875V4.11426H151.334V0.671875H162.672ZM171.198 22H166.555L166.584 18.5723H171.198C172.351 18.5723 173.322 18.3135 174.113 17.7959C174.904 17.2686 175.5 16.502 175.9 15.4961C176.311 14.4902 176.516 13.2744 176.516 11.8486V10.8086C176.516 9.71484 176.398 8.75293 176.164 7.92285C175.939 7.09277 175.603 6.39453 175.153 5.82812C174.704 5.26172 174.152 4.83691 173.498 4.55371C172.844 4.26074 172.092 4.11426 171.242 4.11426H166.467V0.671875H171.242C172.668 0.671875 173.972 0.916016 175.153 1.4043C176.345 1.88281 177.375 2.57129 178.244 3.46973C179.113 4.36816 179.782 5.44238 180.251 6.69238C180.729 7.93262 180.969 9.31445 180.969 10.8379V11.8486C180.969 13.3623 180.729 14.7441 180.251 15.9941C179.782 17.2441 179.113 18.3184 178.244 19.2168C177.385 20.1055 176.354 20.7939 175.153 21.2822C173.962 21.7607 172.644 22 171.198 22ZM169.045 0.671875V22H164.65V0.671875H169.045Z" fill="#FFCC43"/>
</svg>
